<svg width="1512" height="1718" viewBox="0 0 1512 1718" fill="none" xmlns="http://www.w3.org/2000/svg">
<g clip-path="url(#clip0_249_491)">
<path d="M-2370.92 1515.65C-2224.29 1345.19 -2000.86 1215.78 -1763.62 1125.18C-1483.9 1018.38 -1184.18 966.934 -891.078 922.637C-586.258 876.487 -281.324 832.886 21.5147 764.256C305.996 699.779 588.107 614.04 850.162 493.205C1087.16 383.901 1307.78 246.243 1481.26 81.2189C1501.97 61.5574 1521.98 41.5599 1541.31 21.226C1554.9 6.87829 1526.62 -3.33202 1513.08 10.9505C1349.34 183.257 1133.36 328.006 897.41 443.3C640.327 568.962 361.345 658.56 78.9227 725.869C-225.582 798.44 -533.043 844.394 -839.902 890.184C-1134.19 934.346 -1433.97 982.118 -1717.62 1082.39C-1954.4 1166.14 -2180.88 1285.6 -2343.05 1445.39C-2362.93 1464.93 -2381.53 1484.93 -2399.14 1505.43C-2411.82 1520.19 -2383.61 1530.41 -2370.92 1515.65Z" fill="url(#paint0_linear_249_491)"/>
<path d="M1514.3 21.0413C1348.96 192.213 1132.89 336.631 896.903 451.53C641.099 576.341 363.769 665.138 82.7126 731.116C-222.047 802.745 -529.648 847.117 -837.004 892.132C-1132.4 935.38 -1432.86 983.031 -1718.59 1080.93C-1958.97 1163.33 -2192.72 1281.72 -2361.7 1441.02C-2381.75 1459.93 -2400.85 1479.33 -2419 1499.21C-2432.33 1513.74 -2404.05 1523.95 -2390.86 1509.46C-2235.5 1339.62 -2005.06 1211.4 -1763.43 1122.7C-1481.32 1019.15 -1182.02 968.018 -887.75 924.317C-582.834 879.051 -277.664 836.854 25.455 769.26C308.37 706.169 588.828 621.23 849.575 501.406C1086.47 392.534 1307.75 255.155 1482.01 91.1828C1502.91 71.5359 1523.15 51.5625 1542.73 31.2626C1556.48 16.9728 1528.21 6.80962 1514.5 20.9869L1514.3 21.0413Z" fill="url(#paint1_linear_249_491)"/>
<path d="M1515.47 31.1974C1348.23 201.767 1131.51 345.605 895.11 460.311C638.697 584.73 360.93 673.241 79.2453 738.225C-225.281 808.324 -532.366 850.887 -838.975 894.941C-1134.79 937.442 -1435.29 984.953 -1722.05 1080.6C-1965.41 1161.58 -2203.24 1277.89 -2379.33 1435.37C-2400.29 1454.09 -2420.3 1473.41 -2439.41 1493.14C-2453.23 1507.41 -2424.97 1517.57 -2411.19 1503.37C-2248.17 1335.31 -2012.83 1209.51 -1768.53 1122.2C-1484.92 1020.99 -1185.37 969.986 -890.492 926.93C-586.202 882.542 -281.508 842.041 21.2443 776.014C304.73 714.235 585.581 629.95 846.898 510.376C1084.16 401.808 1305.72 264.911 1481.79 101.513C1502.97 81.8246 1523.55 61.7921 1543.53 41.4149C1557.45 27.2303 1529.19 17.0672 1515.39 31.1683L1515.47 31.1974Z" fill="url(#paint2_linear_249_491)"/>
<path d="M1516.55 41.3254C1347 211.814 1128.13 355.978 890.008 470.695C631.162 595.418 350.891 683.442 66.8626 746.936C-235.791 814.656 -540.725 855.07 -845.183 898.036C-1140.84 939.787 -1440.82 987.359 -1728.03 1081.1C-1973.65 1160.87 -2214.36 1274.77 -2397.03 1429.99C-2418.78 1448.47 -2439.5 1467.52 -2459.41 1486.97C-2473.81 1500.98 -2445.68 1511.13 -2431.26 1497.22C-2261.18 1331.59 -2021.7 1208.36 -1775.33 1122.57C-1490.86 1023.5 -1191.64 972.592 -896.663 930.167C-594.482 886.754 -291.989 848.214 8.8234 784.583C294.414 724.208 577.538 640.622 841.126 520.941C1080.14 412.457 1303.27 275.285 1481.88 111.959C1503.49 92.2039 1524.42 72.0275 1544.64 51.6372C1558.77 37.6993 1530.45 27.3476 1516.5 41.3906L1516.55 41.3254Z" fill="url(#paint3_linear_249_491)"/>
<path d="M1517.64 51.452C1346.84 220.255 1129.26 363.36 892.406 477.432C634.192 601.832 354.967 689.472 71.3246 752.002C-232.2 818.895 -537.943 857.909 -843.167 900.172C-1138.29 940.969 -1437 987.944 -1724.4 1078.3C-1973.44 1156.61 -2218.25 1267.83 -2409.29 1420.3C-2432.7 1438.98 -2455.15 1458.23 -2476.62 1478.07C-2491.36 1491.61 -2469.15 1507.56 -2454.25 1493.82C-2275.78 1329.72 -2033.55 1208.38 -1783.28 1123.21C-1497.76 1026.13 -1198.54 975.218 -903.218 933.305C-598.931 890.233 -294.4 853.115 8.71161 790.279C294.206 731.143 576.558 648.425 839.993 529.24C1079.09 421.086 1302.12 284.298 1482.21 121.937C1504.05 102.222 1525.2 82.0853 1545.86 61.7275C1560.06 47.7715 1531.77 37.5141 1517.64 51.452Z" fill="url(#paint4_linear_249_491)"/>
<path d="M1518.72 61.58C1345.2 230.411 1125.76 373.817 887.051 487.935C628.795 611.386 350.064 697.931 66.802 758.941C-236.087 824.196 -540.994 861.517 -845.325 902.83C-1142.58 943.191 -1443.52 990.415 -1733.61 1079.88C-1983.83 1157 -2230.22 1265.86 -2426.55 1414.95C-2450.76 1433.34 -2474.08 1452.3 -2496.49 1471.85C-2511.8 1485.15 -2489.53 1501.03 -2474.05 1487.59C-2289.33 1326.91 -2044.88 1208.51 -1793.11 1124.6C-1504.68 1028.45 -1203.16 977.277 -905.414 935.821C-603.223 893.771 -300.957 858.379 0.498579 797.659C287.9 739.728 572.112 657.772 837.486 538.315C1077.15 430.364 1300.67 293.845 1482.46 132.188C1504.79 112.393 1526.29 92.2133 1547.35 71.7469C1561.68 57.7546 1533.63 47.5843 1519.12 61.4713L1518.72 61.58Z" fill="url(#paint5_linear_249_491)"/>
<path d="M1519.89 71.7361C1344.44 239.316 1124.86 382.457 886.009 496.31C625.567 620.453 344.653 706.627 58.8805 766.596C-245.003 830.299 -550.726 865.666 -855.788 906.67C-1151.35 946.118 -1450.54 993.426 -1739.23 1080.34C-1991.83 1156.38 -2241.2 1263.26 -2444.33 1409.8C-2469.34 1427.89 -2493.51 1446.53 -2516.84 1465.72C-2532.71 1478.81 -2510.44 1494.7 -2494.45 1481.52C-2301.16 1322.78 -2051.83 1206.44 -1796.64 1124.04C-1509.81 1031.31 -1211.32 980.342 -915.997 939.745C-611.861 897.979 -307.545 864.055 -4.1281 804.475C284.405 747.806 569.583 666.498 835.88 546.995C1075.71 439.403 1299.24 303.185 1482.45 142.511C1505 122.755 1526.79 102.597 1548.08 82.1711C1562.55 68.1427 1534.4 58.15 1519.94 71.9247L1519.89 71.7361Z" fill="url(#paint6_linear_249_491)"/>
<path d="M1523.89 79.101C1346.8 245.658 1128.81 388.27 890.206 502.258C628.54 627.187 346.384 713.292 59.1126 772.503C-244.315 834.97 -549.313 869.027 -853.759 908.854C-1149.51 947.594 -1448.33 994.399 -1738.16 1078.99C-1996.89 1154.41 -2252.41 1260.32 -2463.95 1406.1C-2489.03 1423.4 -2513.37 1441.23 -2536.97 1459.58C-2553.36 1472.36 -2531 1488.32 -2514.52 1475.36C-2314.23 1319.63 -2061.84 1205.86 -1804.42 1124.52C-1515.49 1033.15 -1215.54 982.292 -918.578 942.163C-616.563 901.324 -314.324 869.024 -12.8016 811.474C275.135 756.585 559.611 676.934 826.047 559.012C1067.98 451.761 1293.48 315.366 1479.69 154.892C1502.5 135.234 1524.7 115.236 1546.28 94.9007C1560.77 81.2204 1538.29 65.3444 1523.89 79.101Z" fill="url(#paint7_linear_249_491)"/>
<path d="M1525 89.323C1345.31 255.571 1125.94 398.404 885.817 512.348C625.168 635.99 344.537 720.823 58.5681 778.468C-245.459 839.781 -550.974 872.461 -855.903 911.558C-1152.62 949.65 -1452.23 996.465 -1743.49 1079.47C-2004.98 1154.02 -2263.11 1258.01 -2481.36 1400.99C-2507.21 1418.1 -2532.43 1435.61 -2557.01 1453.52C-2573.91 1465.98 -2551.53 1481.78 -2534.63 1469.32C-2325.93 1315.97 -2068.75 1204.24 -1807.2 1123.81C-1517.64 1034.79 -1218.02 984.279 -921.07 944.911C-618.315 904.682 -315.506 873.695 -13.2377 817.308C274.175 763.674 558.409 685.252 824.988 567.595C1067.15 460.638 1292.71 324.478 1480.33 164.987C1503.42 145.256 1525.91 125.297 1547.82 105.109C1562.48 91.5333 1540.26 75.5848 1525.43 89.3086L1525 89.323Z" fill="url(#paint8_linear_249_491)"/>
<path d="M1526.01 99.1668C1343.12 264.511 1124.97 407.808 883.231 521.393C619.459 645.981 335.499 730.196 46.2478 786.604C-257.405 845.843 -561.988 876.652 -866.497 915.181C-1162.61 952.602 -1461.44 999.613 -1752.51 1080.94C-2015.56 1154.5 -2275.22 1256.27 -2498.77 1395.63C-2525.51 1412.3 -2551.63 1429.48 -2577.13 1447.17C-2594.5 1459.25 -2572.04 1475.03 -2554.68 1462.95C-2339.8 1313.6 -2080.62 1204.46 -1817.32 1125.18C-1527.42 1037.94 -1228.26 987.35 -931.568 948.356C-629.729 908.728 -327.861 879.311 -26.3266 824.995C264.448 772.627 551.673 695.167 820.958 576.879C1065.31 470.264 1288.66 334.118 1479.75 175.313C1503.14 155.497 1526.09 135.433 1548.58 115.119C1563.47 101.584 1541.26 85.6353 1526.19 99.3192L1526.01 99.1668Z" fill="url(#paint9_linear_249_491)"/>
<path d="M1527.16 109.53C1341.73 274.619 1121.81 417.71 878.75 531.407C614.72 655.305 330.843 738.234 41.6911 793.148C-260.016 850.546 -562.618 879.908 -864.775 917.295C-1161.85 954.067 -1461.33 1000.85 -1753.74 1080.37C-2021.59 1153.19 -2287.68 1253.77 -2518.5 1391.76C-2545.21 1407.68 -2571.39 1424.1 -2597.05 1441.02C-2614.8 1452.75 -2592.36 1468.49 -2574.67 1456.82C-2351.64 1309.97 -2087.36 1202.65 -1819.89 1124.46C-1528.18 1039.11 -1227.94 988.783 -930.006 950.412C-630.275 911.759 -330.56 883.683 -31.0395 831.226C259.422 780.359 546.468 704.364 815.873 587.055C1061.58 480.307 1286.56 344.196 1479.75 185.429C1503.53 165.78 1526.86 145.745 1549.76 125.322C1564.75 111.911 1542.54 95.9621 1527.32 109.588L1527.16 109.53Z" fill="url(#paint10_linear_249_491)"/>
<path d="M1528.31 119.639C1339.8 284.967 1117.39 428.255 872.214 542.33C607.244 665.673 322.732 747.053 32.9841 800.56C-268.285 856.12 -569.879 883.895 -871.293 920.575C-1169.16 956.803 -1469.32 1003.72 -1762.86 1082.02C-2032.46 1153.96 -2300.09 1252.57 -2535.95 1386.51C-2563.5 1402.16 -2590.46 1418.35 -2617.11 1434.91C-2635.25 1446.24 -2612.67 1461.94 -2594.65 1450.69C-2364.27 1307.11 -2096.46 1201.97 -1825.78 1124.73C-1533.89 1041.41 -1234.1 991.257 -936.52 953.438C-636.302 915.26 -336.179 888.692 -36.0461 837.436C254.827 787.824 542.159 713.42 812.282 596.373C1058.57 489.661 1284.53 353.96 1479.38 195.748C1503.73 175.942 1527.51 155.839 1550.7 135.439C1565.92 122.067 1543.64 106.137 1528.31 119.639Z" fill="url(#paint11_linear_249_491)"/>
<path d="M1529.4 129.767C1339.06 294.086 1115.94 436.661 870.666 550.691C605.836 673.491 321.752 753.794 32.3804 806.036C-269.208 860.417 -571.64 886.952 -873.58 923.015C-1169.61 958.341 -1467.74 1004.76 -1760.02 1080.29C-2033.07 1150.89 -2304.34 1247.2 -2547.28 1377.59C-2576.58 1393.3 -2605.42 1409.53 -2633.82 1426.28C-2652.44 1437.18 -2637.42 1457.61 -2618.83 1446.61C-2380.8 1306.57 -2110.51 1202.93 -1835.81 1126.18C-1543.66 1044.61 -1244.33 994.378 -947.059 956.997C-646.365 919.247 -345.873 894.046 -45.1857 844.309C246.711 796.09 535.251 723.231 806.772 606.564C1054.65 499.694 1282.47 363.982 1479.64 205.745C1504.25 186.005 1528.36 165.996 1551.97 145.719C1567.36 132.453 1545.15 116.504 1529.58 129.919L1529.4 129.767Z" fill="url(#paint12_linear_249_491)"/>
<path d="M1530.48 139.894C1338.46 303.371 1114.65 445.402 869.243 559.524C602.014 683.022 315.271 762.527 23.4728 813.503C-277.544 866.01 -578.85 891.127 -879.897 926.241C-1176.6 960.939 -1475.11 1007.56 -1768.3 1081.83C-2043.65 1151.62 -2316.88 1246.04 -2565.23 1372.88C-2595.17 1388.16 -2624.73 1403.96 -2653.91 1420.28C-2672.65 1430.76 -2657.85 1451.19 -2638.86 1440.59C-2395.84 1304.92 -2124.48 1203.88 -1848.95 1128.37C-1554.49 1047.64 -1253.5 997.16 -954.081 960.008C-652.711 922.632 -351.594 898.678 -50.1761 850.312C241.302 803.47 529.514 732.32 801.075 616.603C1050.47 509.577 1280.09 373.871 1479.51 215.644C1504.43 195.957 1528.85 175.864 1552.78 155.364C1568.39 142.137 1546.13 126.254 1530.39 139.564L1530.48 139.894Z" fill="url(#paint13_linear_249_491)"/>
<path d="M1531.58 150.068C1335.94 312.889 1110.22 456.983 862.319 570.602C594.447 693.314 307.081 771.318 14.987 820.401C-285.458 871.033 -585.893 894.852 -886.267 929.531C-1183.71 963.873 -1482.6 1010.44 -1777.03 1083.58C-2055.58 1152.72 -2331.83 1245.78 -2585.91 1369.52C-2615.54 1384 -2644.88 1398.92 -2673.94 1414.26C-2693.17 1424.52 -2678.26 1444.82 -2658.96 1434.59C-2408.99 1302.56 -2134.09 1203.44 -1855.06 1128.91C-1560.56 1050.19 -1260.03 999.837 -961.022 963.048C-660.5 926.255 -360.2 903.535 -59.5263 856.938C233.282 811.557 523.33 741.883 796.506 626.286C1046.67 520.503 1277.7 382.763 1479.02 226.046C1504.47 206.214 1529.47 186.064 1554.04 165.596C1569.76 152.493 1547.49 136.61 1531.59 149.862L1531.58 150.068Z" fill="url(#paint14_linear_249_491)"/>
<path d="M1532.73 160.178C1334.82 321.791 1108.96 465.873 860.498 579.289C590.348 702.617 300.301 779.474 5.93886 827.349C-293.788 876.118 -593.017 898.549 -892.89 932.688C-1188.31 966.28 -1485.28 1012.48 -1777.79 1083.18C-2061.17 1151.71 -2342.02 1243.43 -2603.33 1364.36C-2633.91 1378.53 -2664.2 1393.13 -2694.21 1408.16C-2713.78 1417.95 -2698.79 1438.28 -2679.16 1428.47C-2422.5 1300.19 -2143.56 1202.72 -1861.47 1129.38C-1566.74 1052.57 -1266.45 1002.43 -967.619 966.299C-666.192 929.666 -365.589 908.331 -64.3451 863.046C227.789 819.163 517.589 751.225 790.815 636.88C1042.62 531.31 1275.11 392.872 1479.08 236.398C1504.86 216.629 1530.18 196.479 1555.16 176.119C1571.12 163.102 1548.78 147.237 1532.77 160.319L1532.73 160.178Z" fill="url(#paint15_linear_249_491)"/>
<path d="M1533.82 170.304C1332.97 331.398 1105.5 476.216 855.172 589.632C584.847 712.046 295.036 787.119 1.00004 833.54C-299.084 880.989 -599.218 902.198 -899.311 935.789C-1196.56 969.015 -1495.37 1015.57 -1789.94 1085.55C-2074.35 1153.2 -2356.21 1242.81 -2621.19 1359.48C-2652.53 1373.01 -2683.44 1387.39 -2714.16 1401.92C-2734.05 1411.29 -2719.05 1431.67 -2699.17 1422.25C-2436.69 1298.21 -2155.26 1203.05 -1869.97 1130.41C-1574.06 1055 -1273.61 1004.92 -974.184 969.136C-672.457 933.079 -371.213 912.785 -69.3184 868.842C223.441 826.206 514.331 759.643 788.316 645.446C1042.21 539.616 1275.55 400.34 1481.86 243.994C1507.04 224.943 1531.77 205.558 1556.18 186.01C1572.31 173.099 1550 157.328 1533.79 170.21L1533.82 170.304Z" fill="url(#paint16_linear_249_491)"/>
<path d="M1534.91 180.479C1331.58 340.372 1104.12 485.19 853.23 598.403C581.89 720.787 290.922 794.504 -3.81872 839.649C-304.939 885.658 -605.219 905.794 -905.88 938.881C-1205.06 971.87 -1505.47 1018.65 -1802.28 1088.03C-2087.89 1154.73 -2370.63 1242.36 -2639.2 1354.79C-2671.11 1368.14 -2702.79 1381.85 -2734.26 1395.92C-2754.4 1404.91 -2739.34 1425.22 -2719.2 1416.23C-2452.46 1297.06 -2169.52 1204.27 -1882.93 1132.7C-1585.09 1058.34 -1282.58 1007.91 -981.209 972.401C-679.837 936.896 -377.253 917.301 -74.6827 874.794C218.781 833.435 510.921 768.304 785.837 654.362C1040.27 548.942 1273.63 409.459 1481.79 254.128C1507.31 235.087 1532.46 215.794 1557.22 196.25C1573.59 183.425 1551.18 167.531 1534.84 180.497L1534.91 180.479Z" fill="url(#paint17_linear_249_491)"/>
<path d="M1536 190.606C1328.77 350.44 1099.26 496.468 845.381 609.782C573.358 731.238 281.699 802.664 -13.0096 846.332C-313.293 890.649 -612.649 909.421 -912.515 941.99C-1210.99 974.385 -1510.72 1021.03 -1806.93 1088.63C-2096.04 1154.61 -2382.23 1240.69 -2656.51 1349.55C-2689.36 1362.58 -2721.96 1376 -2754.42 1389.69C-2774.81 1398.28 -2759.69 1418.58 -2739.43 1410.02C-2465.99 1294.6 -2179.3 1203.73 -1888.94 1133.06C-1589.75 1060.26 -1286.36 1009.89 -984.003 974.826C-683.735 940.024 -384.361 921.853 -83.8959 881.13C209.134 841.355 501.458 778.501 776.798 665.861C1034.28 560.829 1269.59 420.013 1481.16 264.567C1507.26 245.422 1532.98 225.972 1558.45 206.388C1574.92 193.64 1552.55 177.633 1536 190.606Z" fill="url(#paint18_linear_249_491)"/>
<path d="M1536.95 200.77C1326.27 360.07 1095.35 506.986 839.318 620.325C566.088 741.298 273.021 810.979 -22.4267 852.976C-323.278 895.726 -623.032 913.291 -923.482 945.562C-1220.87 977.461 -1519.66 1023.85 -1815.16 1090.09C-2107.33 1154.84 -2395.19 1240.13 -2674.49 1344.71C-2707.97 1357.37 -2741.3 1370.31 -2774.48 1383.53C-2795.05 1391.72 -2779.87 1412 -2759.43 1403.84C-2481.05 1292.86 -2191.04 1203.92 -1897.84 1134.2C-1598.96 1063.15 -1296.24 1012.96 -994.501 978.271C-692.765 943.579 -394.019 926.539 -93.0798 887.306C200.291 849.058 493.82 788.003 770.015 676.396C1029.68 571.434 1266.34 429.795 1480.87 274.662C1507.33 255.536 1533.49 236.172 1559.34 216.569C1575.99 203.974 1553.67 188.156 1536.95 200.77Z" fill="url(#paint19_linear_249_491)"/>
<path d="M1538.24 210.843C1325.1 368.783 1093.94 516.119 837.188 629.197C562.972 749.982 268.748 818.306 -27.3881 858.82C-330.255 900.496 -631.903 916.904 -934.327 949.051C-1232.57 980.151 -1531.24 1028.11 -1827.66 1092.51C-2122.11 1156.74 -2412.76 1239.95 -2696.02 1341.12C-2729.01 1352.94 -2761.85 1365.02 -2794.55 1377.37C-2815.3 1385.16 -2800.12 1405.43 -2779.56 1397.7C-2496.88 1291.99 -2206.09 1204.49 -1910.92 1136.32C-1611.05 1067.29 -1308.4 1015.6 -1005.92 981.764C-703.212 947.213 -401.433 931.023 -98.8002 893.001C195.195 856 489.866 796.508 767.311 685.271C1027.82 580.788 1264.51 438.736 1480.91 284.618C1507.8 265.509 1534.37 246.184 1560.62 226.642C1577.44 214.152 1555.12 198.334 1538.24 210.843Z" fill="url(#paint20_linear_249_491)"/>
<path d="M1539.33 221.018C1323.67 377.568 1092.31 525.261 834.723 638.16C559.655 758.72 264.146 825.217 -32.4299 864.635C-333.019 904.633 -632.29 919.994 -932.459 951.177C-1232.56 981.994 -1533.14 1029.41 -1831.62 1093.03C-2127.33 1156.26 -2419.82 1236.67 -2706.15 1333.44C-2740.96 1345.24 -2775.68 1357.29 -2810.31 1369.59C-2831.1 1376.98 -2824.93 1400.61 -2803.94 1393.16C-2517.84 1291.86 -2225.03 1207 -1928.48 1139.45C-1626.51 1070.91 -1321.91 1019.35 -1017.49 985.246C-714.02 950.844 -411.747 935.683 -108.103 899.008C186.166 863.551 482 805.971 760.434 695.731C1023.35 591.658 1261.45 448.416 1480.74 294.63C1507.97 275.531 1534.98 256.238 1561.77 236.752C1578.78 224.414 1556.33 208.632 1539.33 221.018Z" fill="url(#paint21_linear_249_491)"/>
<path d="M1540.42 231.145C1321.38 387.191 1088.5 536.155 828.46 648.756C552.279 768.656 255.275 833.079 -41.7091 870.989C-342.865 909.42 -642.497 923.715 -943.237 954.648C-1242.46 985.388 -1542.15 1032.13 -1839.92 1094.51C-2138.26 1157.18 -2433.84 1235.41 -2724.29 1328.58C-2759.83 1339.97 -2795.27 1351.58 -2830.61 1363.39C-2851.58 1370.38 -2845.39 1394.05 -2824.23 1386.96C-2533.41 1289.71 -2237.06 1207.31 -1937.56 1140.44C-1635.94 1073.4 -1331.92 1022.63 -1028.09 988.568C-724.144 954.34 -421.629 940.075 -117.577 904.908C176.915 870.808 473.751 815.334 753.198 706.186C1018.61 602.553 1257.96 458.111 1480.34 304.601C1508.04 285.528 1535.46 266.227 1562.73 246.916C1579.9 234.683 1557.45 218.901 1540.27 231.134L1540.42 231.145Z" fill="url(#paint22_linear_249_491)"/>
<path d="M1541.57 241.254C1318.58 396.497 1084.52 546.944 822.008 659.454C546.086 777.918 249.216 840.18 -46.5874 876.607C-348.369 913.791 -648.562 927.074 -949.898 957.663C-1249.54 988.272 -1549.68 1034.47 -1848.03 1095.9C-2149.13 1158.09 -2447.91 1234.25 -2742.45 1323.88C-2778.58 1334.86 -2814.69 1346.02 -2850.78 1357.37C-2871.99 1364.01 -2865.75 1387.62 -2844.41 1380.94C-2549.01 1287.73 -2249.14 1207.82 -1946.64 1141.68C-1644.35 1075.78 -1339.87 1025.58 -1035.58 991.452C-730.834 957.514 -427.582 944.113 -123.039 910.229C170.059 877.619 466.536 824.012 745.547 716.702C1013.61 613.566 1254.27 467.859 1479.74 314.578C1507.79 295.494 1535.68 276.283 1563.42 256.944C1580.79 244.864 1558.33 229.082 1541.04 241.145L1541.57 241.254Z" fill="url(#paint23_linear_249_491)"/>
<path d="M1542.68 251.476C1315.12 406.587 1078.73 559.032 812.466 671.494C535.102 788.88 235.781 848.719 -60.8422 883.446C-361.704 918.712 -660.802 930.991 -961.293 961.25C-1261.32 991.877 -1561.84 1037.64 -1860.7 1098.21C-2162.95 1159.6 -2463.27 1233.26 -2760.21 1318.81C-2797.08 1329.39 -2833.91 1340.11 -2870.7 1350.97C-2892.07 1357.25 -2885.77 1380.84 -2864.33 1374.54C-2565.86 1285.85 -2263.88 1208.78 -1959.76 1143.66C-1655.33 1078.59 -1348.88 1028.77 -1042.64 994.576C-741.633 961.446 -442.394 948.624 -141.447 917.128C153.74 886.129 452.842 835.05 734.923 728.73C1006.89 626.208 1249.57 478.642 1479.34 325.105C1508.08 305.902 1536.69 286.566 1565.16 267.098C1582.71 255.17 1560.26 239.388 1542.77 251.298L1542.68 251.476Z" fill="url(#paint24_linear_249_491)"/>
<path d="M1543.75 261.556C1312.31 415.847 1074.37 569.771 805.441 682.196C526.888 798.639 226.489 856.089 -70.303 889.394C-371.573 923.152 -671.006 934.458 -972.042 964.561C-1271.19 995.137 -1570.81 1040.29 -1868.92 1099.72C-2174 1159.8 -2477.28 1232.9 -2778.14 1314.15C-2815.75 1324.32 -2853.27 1334.6 -2890.72 1345C-2912.28 1350.83 -2905.98 1374.42 -2884.34 1368.57C-2581.4 1284.63 -2276.1 1208.35 -1968.75 1144.72C-1664.67 1081.11 -1358.77 1032.06 -1053.1 997.91C-751.689 964.924 -452.142 952.98 -151.185 922.848C145.05 893.335 446.64 844.011 730.144 738.167C1003.59 636.055 1246.59 487.844 1478.58 335.279C1507.78 316.05 1536.9 296.744 1565.93 277.363C1583.59 265.605 1561.08 249.889 1543.48 261.628L1543.75 261.556Z" fill="url(#paint25_linear_249_491)"/>
<path d="M1544.84 271.683C1308.06 426.201 1067.34 582.597 793.568 694.916C513.835 809.655 211.963 864.315 -84.726 895.873C-383.447 927.626 -680.293 938.133 -978.851 967.565C-1281.67 997.443 -1585.34 1044.65 -1887.43 1103.06C-2192.68 1162.22 -2496.98 1233.17 -2799.22 1310.14C-2836.48 1319.61 -2873.69 1329.18 -2910.85 1338.86C-2932.48 1344.45 -2926.11 1368.02 -2904.48 1362.43C-2601.07 1283.68 -2296.19 1210.35 -1989.51 1148.21C-1682.83 1086.08 -1373.18 1034.93 -1064.06 1001.23C-761.761 968.355 -461.515 957.132 -159.506 928.233C134.79 900.054 435.304 853.399 718.106 750.275C996.696 648.592 1242.36 497.992 1479.14 344.535C1508.58 325.478 1537.95 306.392 1567.24 287.276C1585.08 275.623 1562.57 259.907 1544.79 271.494L1544.84 271.683Z" fill="url(#paint26_linear_249_491)"/>
</g>
<defs>
<linearGradient id="paint0_linear_249_491" x1="-1322.63" y1="944.365" x2="697.02" y2="1824.19" gradientUnits="userSpaceOnUse">
<stop offset="0.0729167" stop-color="#D87878"/>
<stop offset="1" stop-color="#E2D7BC"/>
</linearGradient>
<linearGradient id="paint1_linear_249_491" x1="-1334.72" y1="949.918" x2="626.343" y2="1866.13" gradientUnits="userSpaceOnUse">
<stop offset="0.0729167" stop-color="#D87878"/>
<stop offset="1" stop-color="#E2D7BC"/>
</linearGradient>
<linearGradient id="paint2_linear_249_491" x1="-1347.32" y1="955.591" x2="548.995" y2="1906.43" gradientUnits="userSpaceOnUse">
<stop offset="0.0729167" stop-color="#D87878"/>
<stop offset="1" stop-color="#E2D7BC"/>
</linearGradient>
<linearGradient id="paint3_linear_249_491" x1="-1359.59" y1="961.251" x2="465.065" y2="1944.43" gradientUnits="userSpaceOnUse">
<stop offset="0.0729167" stop-color="#D87878"/>
<stop offset="1" stop-color="#E2D7BC"/>
</linearGradient>
<linearGradient id="paint4_linear_249_491" x1="-1370.12" y1="966.952" x2="382.542" y2="1976.73" gradientUnits="userSpaceOnUse">
<stop offset="0.0729167" stop-color="#D87878"/>
<stop offset="1" stop-color="#E2D7BC"/>
</linearGradient>
<linearGradient id="paint5_linear_249_491" x1="-1382.18" y1="972.498" x2="286.01" y2="2007.52" gradientUnits="userSpaceOnUse">
<stop offset="0.0729167" stop-color="#D87878"/>
<stop offset="1" stop-color="#E2D7BC"/>
</linearGradient>
<linearGradient id="paint6_linear_249_491" x1="-1394.19" y1="980.59" x2="209.389" y2="2031.84" gradientUnits="userSpaceOnUse">
<stop offset="0.0729167" stop-color="#D87878"/>
<stop offset="1" stop-color="#E2D7BC"/>
</linearGradient>
<linearGradient id="paint7_linear_249_491" x1="-1405.78" y1="991.574" x2="189.053" y2="2048.3" gradientUnits="userSpaceOnUse">
<stop offset="0.0729167" stop-color="#D87878"/>
<stop offset="1" stop-color="#E2D7BC"/>
</linearGradient>
<linearGradient id="paint8_linear_249_491" x1="-1416.18" y1="1003.72" x2="163.531" y2="2067.38" gradientUnits="userSpaceOnUse">
<stop offset="0.0729167" stop-color="#D87878"/>
<stop offset="1" stop-color="#E2D7BC"/>
</linearGradient>
<linearGradient id="paint9_linear_249_491" x1="-1426.84" y1="1015.52" x2="137.364" y2="2085.61" gradientUnits="userSpaceOnUse">
<stop offset="0.0729167" stop-color="#D87878"/>
<stop offset="1" stop-color="#E2D7BC"/>
</linearGradient>
<linearGradient id="paint10_linear_249_491" x1="-1437.24" y1="1027.54" x2="110.543" y2="2103.87" gradientUnits="userSpaceOnUse">
<stop offset="0.0729167" stop-color="#D87878"/>
<stop offset="1" stop-color="#E2D7BC"/>
</linearGradient>
<linearGradient id="paint11_linear_249_491" x1="-1447.79" y1="1039.45" x2="84.2494" y2="2121.62" gradientUnits="userSpaceOnUse">
<stop offset="0.0729167" stop-color="#D87878"/>
<stop offset="1" stop-color="#E2D7BC"/>
</linearGradient>
<linearGradient id="paint12_linear_249_491" x1="-1457.28" y1="1051.28" x2="57.3961" y2="2138.77" gradientUnits="userSpaceOnUse">
<stop offset="0.0729167" stop-color="#D87878"/>
<stop offset="1" stop-color="#E2D7BC"/>
</linearGradient>
<linearGradient id="paint13_linear_249_491" x1="-1467.9" y1="1062.88" x2="32.1428" y2="2155.51" gradientUnits="userSpaceOnUse">
<stop offset="0.0729167" stop-color="#D87878"/>
<stop offset="1" stop-color="#E2D7BC"/>
</linearGradient>
<linearGradient id="paint14_linear_249_491" x1="-1478.42" y1="1074.99" x2="3.97197" y2="2172.66" gradientUnits="userSpaceOnUse">
<stop offset="0.0729167" stop-color="#D87878"/>
<stop offset="1" stop-color="#E2D7BC"/>
</linearGradient>
<linearGradient id="paint15_linear_249_491" x1="-1488.98" y1="1087.33" x2="-24.0958" y2="2189.66" gradientUnits="userSpaceOnUse">
<stop offset="0.0729167" stop-color="#D87878"/>
<stop offset="1" stop-color="#E2D7BC"/>
</linearGradient>
<linearGradient id="paint16_linear_249_491" x1="-1499.42" y1="1099.13" x2="-51.1387" y2="2205.7" gradientUnits="userSpaceOnUse">
<stop offset="0.0729167" stop-color="#D87878"/>
<stop offset="1" stop-color="#E2D7BC"/>
</linearGradient>
<linearGradient id="paint17_linear_249_491" x1="-1509.9" y1="1111.23" x2="-78.7262" y2="2221.73" gradientUnits="userSpaceOnUse">
<stop offset="0.0729167" stop-color="#D87878"/>
<stop offset="1" stop-color="#E2D7BC"/>
</linearGradient>
<linearGradient id="paint18_linear_249_491" x1="-1521.83" y1="1117.84" x2="-63.037" y2="2232.56" gradientUnits="userSpaceOnUse">
<stop offset="0.0729167" stop-color="#D87878"/>
<stop offset="1" stop-color="#E2D7BC"/>
</linearGradient>
<linearGradient id="paint19_linear_249_491" x1="-1534.37" y1="1122.16" x2="-30.299" y2="2240.27" gradientUnits="userSpaceOnUse">
<stop offset="0.0729167" stop-color="#D87878"/>
<stop offset="1" stop-color="#E2D7BC"/>
</linearGradient>
<linearGradient id="paint20_linear_249_491" x1="-1546.85" y1="1126.32" x2="3.01233" y2="2246.86" gradientUnits="userSpaceOnUse">
<stop offset="0.0729167" stop-color="#D87878"/>
<stop offset="1" stop-color="#E2D7BC"/>
</linearGradient>
<linearGradient id="paint21_linear_249_491" x1="-1559" y1="1130.09" x2="37.9773" y2="2251.65" gradientUnits="userSpaceOnUse">
<stop offset="0.0729167" stop-color="#D87878"/>
<stop offset="1" stop-color="#E2D7BC"/>
</linearGradient>
<linearGradient id="paint22_linear_249_491" x1="-1571.92" y1="1133.57" x2="73.9221" y2="2255.02" gradientUnits="userSpaceOnUse">
<stop offset="0.0729167" stop-color="#D87878"/>
<stop offset="1" stop-color="#E2D7BC"/>
</linearGradient>
<linearGradient id="paint23_linear_249_491" x1="-1585.01" y1="1136.54" x2="112.062" y2="2256.23" gradientUnits="userSpaceOnUse">
<stop offset="0.0729167" stop-color="#D87878"/>
<stop offset="1" stop-color="#E2D7BC"/>
</linearGradient>
<linearGradient id="paint24_linear_249_491" x1="-1597.75" y1="1138.65" x2="157.074" y2="2254.25" gradientUnits="userSpaceOnUse">
<stop offset="0.0729167" stop-color="#D87878"/>
<stop offset="1" stop-color="#E2D7BC"/>
</linearGradient>
<linearGradient id="paint25_linear_249_491" x1="-1611.19" y1="1139.93" x2="205.007" y2="2248.63" gradientUnits="userSpaceOnUse">
<stop offset="0.0729167" stop-color="#D87878"/>
<stop offset="1" stop-color="#E2D7BC"/>
</linearGradient>
<linearGradient id="paint26_linear_249_491" x1="-1624.98" y1="1139.18" x2="262.248" y2="2236.63" gradientUnits="userSpaceOnUse">
<stop offset="0.0729167" stop-color="#D87878"/>
<stop offset="1" stop-color="#E2D7BC"/>
</linearGradient>
<clipPath id="clip0_249_491">
<rect width="4664.3" height="518.255" fill="white" transform="translate(-2961 1217.45) rotate(-15.1303)"/>
</clipPath>
</defs>
</svg>
